<?xml version="1.0" encoding="utf-8"?>
<!-- Generator: Adobe Illustrator 25.3.1, SVG Export Plug-In . SVG Version: 6.00 Build 0)  -->
<svg version="1.1" id="Layer_1" xmlns="http://www.w3.org/2000/svg" xmlns:xlink="http://www.w3.org/1999/xlink" x="0px" y="0px"
	 viewBox="0 0 100 100" style="enable-background:new 0 0 100 100;" xml:space="preserve">
<g id="Cycle_x5F_Hexagon">
	<path d="M50,100c-2,0-4-0.5-5.8-1.5L9.8,79.6C5.6,77.3,3,72.9,3,68V32c0-4.9,2.6-9.3,6.8-11.6L29,9.8c1-0.5,2.2-0.2,2.7,0.8
		s0.2,2.2-0.8,2.7L11.7,23.9C8.8,25.5,7,28.6,7,32v36c0,3.4,1.8,6.5,4.7,8.1L46.1,95c2.4,1.3,5.3,1.3,7.7,0l6.2-3.4
		c1-0.5,2.2-0.2,2.7,0.8s0.2,2.2-0.8,2.7l-6.2,3.4C54,99.5,52,100,50,100z"/>
	<path d="M26.3,25.4c-0.2,0-0.4,0-0.6-0.1c-1.1-0.3-1.6-1.4-1.3-2.5l3.1-9.9l-9.7-3.1c-1.1-0.3-1.6-1.5-1.3-2.5
		C16.8,6.2,18,5.6,19,6l11.6,3.7c1,0.3,1.6,1.4,1.3,2.5L28.2,24C28,24.8,27.2,25.4,26.3,25.4z"/>
	<g>
		<path d="M69.9,90.5c-0.7,0-1.4-0.4-1.8-1c-0.5-1-0.2-2.2,0.8-2.7l19.2-10.6c2.9-1.6,4.7-4.7,4.7-8.1V32c0-3.4-1.8-6.5-4.7-8.1
			L53.8,5c-2.4-1.3-5.3-1.3-7.7,0l-6.2,3.4c-1,0.5-2.2,0.2-2.7-0.8S37,5.4,38,4.9l6.2-3.4c3.6-2,7.9-2,11.6,0l34.4,18.9
			C94.4,22.7,97,27.1,97,32v36c0,4.9-2.6,9.3-6.8,11.6L70.9,90.2C70.6,90.4,70.3,90.5,69.9,90.5z"/>
		<path d="M81.5,94.2c-0.2,0-0.4,0-0.6-0.1l-11.6-3.7c-1-0.3-1.6-1.4-1.3-2.5l3.7-11.8c0.3-1.1,1.4-1.6,2.5-1.3
			c1.1,0.3,1.6,1.4,1.3,2.5l-3.1,9.9l9.7,3.1c1.1,0.3,1.6,1.5,1.3,2.5C83.2,93.6,82.4,94.2,81.5,94.2z"/>
	</g>
	<path d="M81.5,94.2c-0.2,0-0.4,0-0.6-0.1l-11.6-3.7c-1-0.3-1.6-1.4-1.3-2.5l3.7-11.8c0.3-1.1,1.4-1.6,2.5-1.3
		c1.1,0.3,1.6,1.4,1.3,2.5l-3.1,9.9l9.7,3.1c1.1,0.3,1.6,1.5,1.3,2.5C83.2,93.6,82.4,94.2,81.5,94.2z"/>
</g>
<g id="Your_Icon">
	<path d="M81.4,94.2c-0.2,0-0.4,0-0.6-0.1l-11.6-3.7c-1-0.3-1.6-1.4-1.3-2.5l3.7-11.8c0.3-1.1,1.4-1.6,2.5-1.3
		c1.1,0.3,1.6,1.4,1.3,2.5l-3.1,9.9l9.7,3.1c1.1,0.3,1.6,1.5,1.3,2.5C83.1,93.6,82.3,94.2,81.4,94.2z"/>
	<path d="M35.6,37.9h-21c-1.1,0-2-0.9-2-2s0.9-2,2-2h21c1.1,0,2,0.9,2,2S36.7,37.9,35.6,37.9z"/>
	<path d="M35.6,45.3h-21c-1.1,0-2-0.9-2-2s0.9-2,2-2h21c1.1,0,2,0.9,2,2S36.7,45.3,35.6,45.3z"/>
	<path d="M35.6,52.6h-21c-1.1,0-2-0.9-2-2s0.9-2,2-2h21c1.1,0,2,0.9,2,2C37.6,51.7,36.7,52.6,35.6,52.6z"/>
	<g>
		<path d="M74.5,47.6c-1.1,0-2-0.9-2-2v-8.1c0-1.1,0.9-2,2-2s2,0.9,2,2v8.1C76.5,46.7,75.6,47.6,74.5,47.6z"/>
		<path d="M71.3,39.4c-0.5,0-0.9-0.1-1.4-0.2l0,0c-3-0.8-5.5-2.2-7.4-4.1c-4.8-4.8-4.8-12.4-4.8-12.7c0-1.1,0.9-2,2-2
			c0.3,0,7.9,0,12.7,4.8c1.9,1.9,3.2,4.4,4.1,7.4c0.5,1.9,0,3.8-1.4,5.2C74,38.8,72.7,39.4,71.3,39.4z M61.8,24.6
			c0.3,2.1,1.2,5.4,3.4,7.7c1.4,1.4,3.3,2.4,5.6,3l0,0c0.7,0.2,1.1-0.2,1.3-0.3c0.2-0.2,0.5-0.6,0.3-1.3c-0.6-2.4-1.6-4.2-3-5.6
			C67.2,25.8,64,24.9,61.8,24.6z"/>
		<path d="M76.9,43.8c-1,0-2-0.4-2.8-1.1c-1.2-1.2-1.8-2.9-1.4-4.7l0,0c0.6-2.5,1.6-4.5,2.9-6.1c3.6-4.1,9.2-4.1,9.4-4.1
			c1.1,0,2,0.9,2,2c0,0.3,0,6.4-3.5,10.4c-1.4,1.6-3.2,2.7-5.5,3.4C77.7,43.7,77.3,43.8,76.9,43.8z M76.6,38.9
			c-0.1,0.4,0,0.7,0.2,0.8c0.1,0.1,0.1,0.1,0.1,0.1c1.5-0.5,2.8-1.2,3.6-2.2c1.4-1.6,2-3.7,2.2-5.4c-1.3,0.3-3,1-4.2,2.4
			C77.7,35.6,77,37.1,76.6,38.9L76.6,38.9z"/>
		<path d="M84.5,50h-21c-1.1,0-2-0.9-2-2s0.9-2,2-2h21c1.1,0,2,0.9,2,2S85.6,50,84.5,50z"/>
	</g>
	<g>
		<path d="M61.3,88.9H39.9c-1.1,0-2-0.9-2-2s0.9-2,2-2h21.4c1.1,0,2,0.9,2,2S62.4,88.9,61.3,88.9z"/>
		<path d="M50.2,88.9c-1.1,0-2-0.9-2-2V67.4c0-1.1,0.9-2,2-2s2,0.9,2,2v19.5C52.2,88,51.3,88.9,50.2,88.9z"/>
		<path d="M49.5,75.8c-0.4,0-0.8-0.1-1.2-0.4l-6.6-4.7c-1-0.6-1.7-1.7-1.7-2.9V62c0-0.7,0.4-1.4,1-1.8c0.6-0.4,1.4-0.3,2,0.1
			l7.4,4.7c0.9,0.6,1.2,1.8,0.6,2.8c-0.6,0.9-1.8,1.2-2.8,0.6l-4.3-2.8v1.8l6.6,4.7c0.9,0.6,1.1,1.9,0.5,2.8
			C50.7,75.5,50.1,75.8,49.5,75.8z M44.1,67.8L44.1,67.8L44.1,67.8z"/>
		<path d="M49.5,82.5c-0.4,0-0.8-0.1-1.2-0.4l-6.6-4.7c-1-0.6-1.7-1.7-1.7-2.9v-6.8c0-1.1,0.9-2,2-2s2,0.9,2,2v6.4l6.6,4.7
			c0.9,0.6,1.1,1.9,0.5,2.8C50.7,82.3,50.1,82.5,49.5,82.5z M44.1,74.5L44.1,74.5L44.1,74.5z"/>
		<path d="M50.2,75.8c-0.6,0-1.2-0.3-1.6-0.8c-0.6-0.9-0.4-2.1,0.5-2.8l6.6-4.7v-1.8l-4.3,2.8c-0.9,0.6-2.2,0.3-2.8-0.6
			s-0.3-2.2,0.6-2.8l7.4-4.7c0.6-0.4,1.4-0.4,2-0.1c0.6,0.4,1,1,1,1.8v5.8c0,1.2-0.6,2.3-1.7,2.9l-6.6,4.7
			C51,75.7,50.6,75.8,50.2,75.8z M55.6,67.8L55.6,67.8L55.6,67.8z"/>
		<path d="M50.2,82.5c-0.6,0-1.2-0.3-1.6-0.8c-0.6-0.9-0.4-2.1,0.5-2.8l6.6-4.7v-6.4c0-1.1,0.9-2,2-2s2,0.9,2,2v6.8
			c0,1.2-0.6,2.3-1.7,2.9l-6.6,4.7C51,82.4,50.6,82.5,50.2,82.5z M55.6,74.5C55.6,74.6,55.6,74.6,55.6,74.5L55.6,74.5z"/>
	</g>
	<g id="Layer_19_1_" transform="translate(30.494 23.261)">
		<g id="Group_170600">
			<path d="M19.5,28.7c-1.1,0-2-0.9-2-2V-8.4c0-1.1,0.9-2,2-2s2,0.9,2,2v35.2C21.5,27.8,20.6,28.7,19.5,28.7z"/>
			<path d="M-10.2,45.6c-0.7,0-1.4-0.4-1.7-1c-0.5-1-0.2-2.2,0.8-2.7L18.5,25c1-0.5,2.2-0.2,2.7,0.8s0.2,2.2-0.8,2.7L-9.2,45.3
				C-9.6,45.5-9.9,45.6-10.2,45.6z"/>
			<path d="M49.2,45.6c-0.3,0-0.7-0.1-1-0.3L18.5,28.5c-1-0.5-1.3-1.8-0.8-2.7c0.5-1,1.8-1.3,2.7-0.8l29.7,16.8
				c1,0.5,1.3,1.8,0.8,2.7C50.6,45.2,49.9,45.6,49.2,45.6z"/>
		</g>
	</g>
</g>
</svg>
