<?xml version="1.0" encoding="utf-8"?>
<!-- Generator: Adobe Illustrator 25.4.1, SVG Export Plug-In . SVG Version: 6.00 Build 0)  -->
<svg version="1.1" id="land_use_planning" xmlns="http://www.w3.org/2000/svg" xmlns:xlink="http://www.w3.org/1999/xlink" x="0px"
	 y="0px" viewBox="0 0 100 100" enable-background="new 0 0 100 100" xml:space="preserve">
<g id="icon_4_">
	<g>
		<path d="M91.365,20.695L56.364,1.48c-3.615-1.984-7.933-1.984-11.55,0l-35,19.215C5.975,22.803,3.59,26.833,3.59,31.214v37.572
			c0,4.38,2.385,8.41,6.225,10.519l14.771,8.109c0.262,0.262,0.598,0.449,0.972,0.534l19.257,10.571
			c1.809,0.993,3.791,1.489,5.775,1.489c1.982,0,3.967-0.496,5.775-1.489l35-19.214c3.84-2.108,6.225-6.139,6.225-10.519V31.214
			C97.59,26.833,95.204,22.803,91.365,20.695z M88.523,41.343h4.856c0.072,0,0.141-0.014,0.211-0.021v19.429L88.523,41.343z
			 M49.014,31.04H22.661v-3.714h26.354V31.04z M20.661,35.04h30.354c1.104,0,2-0.896,2-2v-1.854l3.05,0.009L56.107,84H26.679
			l-11.536-6.333V31.2h3.518v1.84C18.661,34.144,19.556,35.04,20.661,35.04z M86.502,77.411C86.341,77.369,86.174,77.34,86,77.34
			H67.01c-1.104,0-2,0.896-2,2s0.896,2,2,2h12.335l-3.652,2.005H67.01c-1.104,0-2,0.896-2,2s0.896,2,2,2h1.397L54.44,95.013
			c-2.412,1.322-5.29,1.322-7.7,0L33.966,88h24.143c0.53,0,1.04-0.211,1.415-0.586c0.375-0.376,0.585-0.885,0.585-1.416l-0.047-56.8
			c-0.001-1.102-0.893-1.996-1.994-1.999l-5.054-0.014v-1.86c0-1.104-0.896-2-2-2H20.661c-1.104,0-2,0.896-2,2V27.2h-5.518
			c-1.104,0-2,0.896-2,2v46.217c-2.202-1.477-3.554-3.949-3.554-6.63V31.214c0-2.92,1.59-5.607,4.15-7.012l35-19.215
			c1.205-0.662,2.527-0.992,3.85-0.992s2.645,0.331,3.85,0.993l35,19.214c2.561,1.406,4.15,4.093,4.15,7.013v6.15
			c-0.07-0.007-0.139-0.021-0.211-0.021H64.114c-1.104,0-2,0.896-2,2s0.896,2,2,2h1.897v25.853c0,1.104,0.896,2,2,2s2-0.896,2-2
			V41.343h1.55l2.861,26.07c0.112,1.024,0.979,1.782,1.985,1.782c0.073,0,0.147-0.004,0.221-0.012
			c1.099-0.121,1.891-1.108,1.771-2.206l-2.813-25.635h2.395l4.86,26.217c0.179,0.963,1.02,1.636,1.965,1.636
			c0.12,0,0.243-0.011,0.366-0.033c1.086-0.201,1.804-1.245,1.603-2.331L82.05,41.343h2.338L91.269,67.7
			c0.235,0.899,1.046,1.495,1.935,1.495c0.119,0,0.24-0.024,0.361-0.046c-0.034,0.755-0.175,1.487-0.41,2.186H67.01
			c-1.104,0-2,0.896-2,2s0.896,2,2,2h23.153c-0.234,0.163-0.47,0.325-0.724,0.464L86.502,77.411z"/>
		<path d="M36.463,65.038H18.1c-1.104,0-2,0.896-2,2s0.896,2,2,2h18.362c1.104,0,2-0.896,2-2S37.567,65.038,36.463,65.038z"/>
		<path d="M16.731,47.301c-0.003,0.486,0.044,4.832,2.606,7.762c1.059,1.209,2.461,2.089,4.168,2.613
			c0.225,0.069,0.452,0.106,0.679,0.129v2.914c0,1.104,0.896,2,2,2s2-0.896,2-2v-6.069c0.114,0.009,0.225,0.033,0.34,0.033
			c0.386,0,0.777-0.051,1.165-0.155c0.001,0,0.001,0,0.002,0c2.269-0.61,4.132-1.634,5.539-3.042
			c3.604-3.604,3.604-9.23,3.602-9.468c-0.008-1.093-0.893-1.977-1.985-1.985c-0.24-0.018-5.868,0.001-9.468,3.601
			c-1.042,1.041-1.869,2.334-2.477,3.852c-2.652-2.169-6.022-2.174-6.187-2.172C17.622,45.323,16.738,46.208,16.731,47.301z
			 M28.201,50.211c0.424-1.581,1.099-2.843,2.006-3.749c1.248-1.248,2.971-1.855,4.346-2.15c-0.296,1.375-0.903,3.098-2.151,4.346
			c-0.904,0.906-2.166,1.581-3.747,2.007c-0.146,0.037-0.27,0.011-0.366-0.087C28.191,50.48,28.162,50.357,28.201,50.211z
			 M22.854,51.043c0.544,0.621,0.978,1.52,1.263,2.607c-0.726-0.298-1.319-0.708-1.77-1.222c-0.623-0.713-1.018-1.685-1.261-2.607
			C21.709,50.077,22.346,50.463,22.854,51.043z"/>
		<path d="M43.477,68.976c0.375,0.375,0.884,0.586,1.414,0.586s1.039-0.211,1.414-0.586l7.399-7.4c0.781-0.781,0.781-2.048,0-2.828
			c-0.781-0.781-2.047-0.781-2.828,0l-5.985,5.985l-1.53-1.53c-0.781-0.781-2.047-0.781-2.828,0c-0.781,0.78-0.781,2.047,0,2.828
			L43.477,68.976z"/>
		<path d="M36.463,74.012H18.1c-1.104,0-2,0.896-2,2s0.896,2,2,2h18.362c1.104,0,2-0.896,2-2S37.567,74.012,36.463,74.012z"/>
		<path d="M43.477,79.95c0.391,0.391,0.902,0.586,1.414,0.586s1.023-0.195,1.414-0.586l7.399-7.399c0.781-0.781,0.781-2.047,0-2.828
			s-2.047-0.781-2.828,0l-5.985,5.985l-1.53-1.53c-0.781-0.781-2.047-0.781-2.828,0s-0.781,2.047,0,2.828L43.477,79.95z"/>
	</g>
</g>
</svg>
