<?xml version="1.0" encoding="utf-8"?>
<!-- Generator: Adobe Illustrator 25.3.1, SVG Export Plug-In . SVG Version: 6.00 Build 0)  -->
<svg version="1.1" id="Layer_1" xmlns="http://www.w3.org/2000/svg" xmlns:xlink="http://www.w3.org/1999/xlink" x="0px" y="0px"
	 viewBox="0 0 100 100" style="enable-background:new 0 0 100 100;" xml:space="preserve">
<g id="Cycle_x5F_Hexagon">
	<path d="M50,100c-2,0-4-0.5-5.8-1.5L9.8,79.6C5.6,77.3,3,72.9,3,68V32c0-4.9,2.6-9.3,6.8-11.6L29,9.8c1-0.5,2.2-0.2,2.7,0.8
		s0.2,2.2-0.8,2.7L11.7,23.9C8.8,25.5,7,28.6,7,32v36c0,3.4,1.8,6.5,4.7,8.1L46.1,95c2.4,1.3,5.3,1.3,7.7,0l6.2-3.4
		c1-0.5,2.2-0.2,2.7,0.8s0.2,2.2-0.8,2.7l-6.2,3.4C54,99.5,52,100,50,100z"/>
	<path d="M26.3,25.4c-0.2,0-0.4,0-0.6-0.1c-1.1-0.3-1.6-1.4-1.3-2.5l3.1-9.9l-9.7-3.1c-1.1-0.3-1.6-1.5-1.3-2.5
		C16.8,6.2,18,5.6,19,6l11.6,3.7c1,0.3,1.6,1.4,1.3,2.5L28.2,24C28,24.8,27.2,25.4,26.3,25.4z"/>
	<g>
		<path d="M83.5,21.1c-0.3,0-0.7-0.1-1-0.2L53.8,5c-2.4-1.3-5.3-1.3-7.7,0l-6.2,3.4c-1,0.5-2.2,0.2-2.7-0.8S37,5.4,38,4.9l6.2-3.4
			c3.6-2,7.9-2,11.6,0l28.7,15.8c1,0.5,1.3,1.7,0.8,2.7C84.9,20.7,84.2,21.1,83.5,21.1z"/>
		<path d="M83.5,19.1"/>
		<path d="M69.9,90.5c-0.7,0-1.4-0.4-1.8-1c-0.5-1-0.2-2.2,0.8-2.7l19.2-10.6c2.9-1.6,4.7-4.7,4.7-8.1V32c0-1.7-0.4-3.3-1.3-4.7
			c-0.6-1-0.2-2.2,0.7-2.7c1-0.6,2.2-0.2,2.7,0.7c1.2,2,1.8,4.4,1.8,6.7v36c0,4.9-2.6,9.3-6.8,11.6l-19,10.6
			C70.6,90.4,70.3,90.5,69.9,90.5z"/>
		<path d="M81.5,94.2c-0.2,0-0.4,0-0.6-0.1l-11.6-3.7c-1-0.3-1.6-1.4-1.3-2.5l3.7-11.8c0.3-1.1,1.4-1.6,2.5-1.3
			c1.1,0.3,1.6,1.4,1.3,2.5l-3.1,9.9l9.7,3.1c1.1,0.3,1.6,1.5,1.3,2.5C83.2,93.6,82.4,94.2,81.5,94.2z"/>
	</g>
	<path d="M81.5,94.2c-0.2,0-0.4,0-0.6-0.1l-11.6-3.7c-1-0.3-1.6-1.4-1.3-2.5l3.7-11.8c0.3-1.1,1.4-1.6,2.5-1.3
		c1.1,0.3,1.6,1.4,1.3,2.5l-3.1,9.9l9.7,3.1c1.1,0.3,1.6,1.5,1.3,2.5C83.2,93.6,82.4,94.2,81.5,94.2z"/>
	<g>
		<path d="M46.8,86.6c-1.1,0-2-0.9-2-2v-8.1c0-1.1,0.9-2,2-2s2,0.9,2,2v8.1C48.8,85.7,47.9,86.6,46.8,86.6z"/>
		<path d="M50,78.3c-1.4,0-2.7-0.5-3.7-1.6c-1.4-1.4-1.9-3.3-1.4-5.2c0.8-3,2.2-5.5,4.1-7.4c4.8-4.8,12.4-4.8,12.7-4.8
			c1.1,0,2,0.9,2,2c0,0.3,0,7.9-4.8,12.7c-1.9,1.9-4.4,3.2-7.4,4.1l0,0C51,78.3,50.5,78.3,50,78.3z M50.9,76.2L50.9,76.2L50.9,76.2z
			 M59.5,63.6c-2.1,0.3-5.4,1.2-7.7,3.4c-1.4,1.4-2.4,3.3-3,5.6c-0.2,0.7,0.2,1.1,0.3,1.3c0.2,0.2,0.6,0.5,1.3,0.3
			c2.4-0.6,4.2-1.7,5.6-3C58.3,69,59.2,65.7,59.5,63.6z"/>
		<path d="M44.4,82.7c-0.4,0-0.8-0.1-1.2-0.2c-2.2-0.7-4.1-1.8-5.5-3.4c-3.5-4-3.5-10.1-3.5-10.4c0-1.1,0.9-2,2-2
			c0.2,0,5.9,0,9.4,4.1c1.4,1.5,2.3,3.6,2.9,6.1c0.4,1.7-0.1,3.5-1.4,4.7C46.5,82.4,45.5,82.7,44.4,82.7z M38.5,71.1
			c0.3,1.6,0.9,3.8,2.2,5.4c0.9,1,2.1,1.8,3.6,2.2c0,0,0.1,0,0.1-0.1c0.2-0.1,0.3-0.5,0.2-0.8l0,0c-0.4-1.8-1.1-3.3-2-4.4
			C41.5,72.1,39.8,71.5,38.5,71.1z"/>
		<path d="M57.8,89h-21c-1.1,0-2-0.9-2-2s0.9-2,2-2h21c1.1,0,2,0.9,2,2S58.9,89,57.8,89z"/>
	</g>
	<path d="M35.7,37.9h-21c-1.1,0-2-0.9-2-2s0.9-2,2-2h21c1.1,0,2,0.9,2,2S36.8,37.9,35.7,37.9z"/>
	<path d="M35.7,45.3h-21c-1.1,0-2-0.9-2-2s0.9-2,2-2h21c1.1,0,2,0.9,2,2S36.8,45.3,35.7,45.3z"/>
	<path d="M35.7,52.6h-21c-1.1,0-2-0.9-2-2s0.9-2,2-2h21c1.1,0,2,0.9,2,2S36.8,52.6,35.7,52.6z"/>
</g>
<g id="Your_Icon">
	<path d="M69.5,43l1.7-5.4c0.1-0.2,0.2-0.3,0.4-0.4l5.3-3.1c0.2-0.1,0.5-0.2,0.7-0.1c0.2,0.1,0.4,0.2,0.5,0.4l2.7,5.1
		c0.1,0.2,0.1,0.4,0.1,0.6l-1.7,5.4c-0.2,0.3-0.6,0.5-1,0.5c-0.1,0-0.1,0-0.2,0l-7.9-2c-0.2-0.1-0.4-0.2-0.5-0.4
		C69.5,43.4,69.4,43.2,69.5,43z"/>
	<path d="M48.6,55.7c-0.4,0-0.8-0.1-1.2-0.4c-0.9-0.6-1.1-1.9-0.5-2.8c1.1-1.5,1.5-2.8,1.3-3.5c-0.2-0.6-1.1-1.5-4.2-2.3
		c-1.1-0.3-1.7-1.4-1.4-2.4c0.3-1.1,1.4-1.7,2.4-1.4c2.5,0.6,5.9,1.8,6.9,4.8c0.8,2.1,0.2,4.5-1.8,7.2
		C49.8,55.4,49.2,55.7,48.6,55.7z"/>
	<path d="M59.3,26.5c-0.6,0-1.1-0.2-1.5-0.7c-2.2-2.6-3.3-6.5-2.8-9.9c0.2-1.5,1.2-2.8,2.5-3.4c1.4-0.6,3-0.5,4.3,0.3
		c2.2,1.5,6.8,4,11.8,4.2c1.1,0,2,1,1.9,2.1c0,1.1-0.9,2-2.1,1.9c-5.7-0.2-10.7-2.8-13.8-4.9c-0.2-0.1-0.3-0.1-0.4,0
		c-0.1,0-0.2,0.1-0.2,0.3c-0.4,2.6,0.7,5.3,1.9,6.7c0.7,0.8,0.6,2.1-0.2,2.8C60.2,26.4,59.8,26.5,59.3,26.5z"/>
	<path d="M90.7,78c-0.7,0-1.4-0.4-1.8-1.1l-6.4-12.4c-1.4-2.9-6.5-11.2-11-11.8c-1.8-0.2-5.6,0.6-9.2,1.5
		c-7.1,1.6-13.7,3.1-16.7,0.2c-1.3-1.3-4.6-5.3-4.6-8.7c0-7,16.4-20.4,19.7-23c6.2-5,10.8-7.7,21.1-3.4c0.2,0.1,0.4,0,0.5-0.2
		c2.1-3.1,7.7-7.4,15-4c1.1,0.5,1.9,1.4,2.3,2.5s0.4,2.3-0.2,3.4c-1.3,2.7-4.2,6.5-7.6,8.3c-4.9,2.5-6.8,3.1-10.5,1.5
		c-1-0.4-1.5-1.6-1.1-2.6s1.6-1.5,2.6-1.1c2,0.8,2.7,0.9,7.1-1.4c2.6-1.3,4.9-4.6,5.8-6.4c0.1-0.1,0-0.3,0-0.3
		c0-0.1-0.1-0.2-0.2-0.2c-6-2.8-9.6,2.1-10,2.7c-1.2,1.7-3.4,2.4-5.3,1.6c-8.5-3.5-11.5-1.5-17.1,2.9c-11.4,9.1-18.2,17.3-18.2,19.9
		c0,1.5,2,4.5,3.5,5.9c1.4,1.4,8.7-0.3,13-1.2c4.4-1,8.2-1.9,10.7-1.5c7.4,1,13.3,12.7,14,14L92.5,75c0.5,1,0.1,2.2-0.9,2.7
		C91.3,77.9,91,78,90.7,78z"/>
	<path id="Path_64_4_" d="M67,32.3c-0.1,1-0.7,1.6-1.7,1.5c-1,0-1.5-0.7-1.5-1.6c0-1,0.6-1.7,1.6-1.7C66.4,30.6,67,31.2,67,32.3z"/>
</g>
<g id="Layer_19">
	<g id="Layer_19_1_" transform="translate(30.494 23.261)">
		<g id="Group_170600">
			<path d="M19.6,13.5c-1.1,0-2-0.9-2-2V-8.4c0-1.1,0.9-2,2-2s2,0.9,2,2v19.9C21.6,12.6,20.7,13.5,19.6,13.5z"/>
			<path d="M-10.1,45.6c-0.7,0-1.4-0.4-1.7-1c-0.6-1-0.2-2.2,0.7-2.7l25.3-14.6c1-0.5,2.2-0.2,2.7,0.7c0.6,1,0.2,2.2-0.7,2.7
				L-9.1,45.3C-9.4,45.5-9.8,45.6-10.1,45.6z"/>
			<path d="M49.3,45.6c-0.3,0-0.7-0.1-1-0.3L25.4,32.1c-1-0.6-1.3-1.8-0.7-2.7c0.6-1,1.8-1.3,2.7-0.7l22.9,13.2
				c1,0.6,1.3,1.8,0.7,2.7C50.7,45.2,50,45.6,49.3,45.6z"/>
		</g>
	</g>
</g>
</svg>
