<?xml version="1.0" encoding="utf-8"?>
<!-- Generator: Adobe Illustrator 25.4.1, SVG Export Plug-In . SVG Version: 6.00 Build 0)  -->
<svg version="1.1" id="Layer_1" xmlns="http://www.w3.org/2000/svg" xmlns:xlink="http://www.w3.org/1999/xlink" x="0px" y="0px"
	 viewBox="0 0 100 100" enable-background="new 0 0 100 100" xml:space="preserve">
<path fill="#231F20" d="M90.7,20.7l-35-19.2c-3.6-2-7.9-2-11.5,0l-35,19.2C5.4,22.8,3,26.8,3,31.2v37.6c0,4.4,2.4,8.4,6.2,10.5
	l35,19.2c1.8,1,3.8,1.5,5.8,1.5s4-0.5,5.7-1.5l35-19.2c3.8-2.1,6.2-6.1,6.2-10.5V31.2C96.9,26.8,94.5,22.8,90.7,20.7z
	 M76.399,82.603C72.841,73.77,72.63,70,72.782,68.666c1.954,0.793,3.88,1.535,5.758,2.181c0.541,3.4,2.242,6.85,3.328,8.756
	L76.399,82.603z M65.256,88.716c-0.977-4.185-2.925-14.882,1.045-22.748c0.671,0.278,1.338,0.557,1.999,0.833
	c0.218,0.092,0.436,0.184,0.654,0.276c-0.714,2.617-0.105,7.76,3.806,17.523L65.256,88.716z M69.9,63c-11.6-4.8-24.8-10.3-36.3-6.9
	c-7.056,2.085-21.173,5.581-26.6,6.886V37.945C7.966,37.45,8.93,36.78,9.8,36.2c2.9-2,5.7-3.8,10.8-3.5c5.4,0.3,12.6,4.9,20.2,9.8
	c8.6,5.4,17.4,11.1,25.4,11.7c0.1,0,0.1,0,0.2,0c1,0,1.9-0.8,2-1.9c0-1.1-0.8-2.1-1.9-2.2c-3.859-0.28-8.219-2.093-12.728-4.546
	C55.598,45.119,57.309,44.45,59,43.8c3.4-1.4,6.9-2.7,11.7-2.5c8.483,0.289,14.186,2.162,22.2,5.163v22.246
	C87.433,70.285,78.893,66.692,69.9,63z M12.075,76.335c1.003-0.761,2.316-1.801,3.825-3.035c5.2-4.1,13.1-10.5,18.7-13
	c0.211-0.106,0.394-0.248,0.556-0.407c0.919-0.241,1.857-0.415,2.811-0.534c-6.041,3.915-15.496,11.354-18.496,21.033L12.075,76.335
	z M23.1,82.3C26.5,69.3,44.8,60,45,59.9c0.217-0.109,0.4-0.255,0.558-0.421c0.684,0.092,1.372,0.201,2.063,0.33
	C32.627,70.29,31.965,82.5,32.437,87.505l-9.368-5.139C23.077,82.342,23.093,82.325,23.1,82.3z M61.9,37.2c0-2,0.8-3.8,2.2-5.2
	c0.78-0.78,1.777-1.375,2.859-1.73c0.08-0.014,0.16-0.03,0.241-0.07c0.012-0.003,0.022-0.01,0.033-0.014
	c0.639-0.183,1.302-0.286,1.967-0.286c2,0,3.8,0.8,5.2,2.2c1.4,1.4,2.1,3.2,2.1,5.2c0,0.143-0.006,0.272-0.015,0.394
	c-1.79-0.238-3.663-0.408-5.685-0.494c-3.452-0.185-6.332,0.354-8.878,1.121C61.901,38.03,61.9,37.683,61.9,37.2z M11.1,24.2L46.1,5
	c1.3-0.7,2.6-1,3.9-1s2.6,0.3,3.8,1l34.9,19.2c2.6,1.4,4.2,4.1,4.2,7v10.938c-4.399-1.63-8.272-2.913-12.42-3.771
	c0.016-0.338,0.02-0.687,0.02-1.068c0-0.433-0.03-0.86-0.078-1.283L85,35c1.1-0.2,1.7-1.3,1.5-2.4c-0.2-1.1-1.3-1.7-2.4-1.5
	l-4.827,1.073c-0.225-0.447-0.472-0.879-0.752-1.291L79.8,29.8c0.8-0.8,0.9-2.1,0.1-2.9c-0.8-0.8-2.1-0.9-2.9-0.1l-1.297,1.193
	c-0.511-0.365-1.056-0.684-1.625-0.961L75.5,21.5c0.3-1.1-0.3-2.2-1.4-2.5c-1.1-0.3-2.2,0.3-2.5,1.4l-1.427,5.55
	c-0.321-0.028-0.644-0.05-0.973-0.05c-0.415,0-0.828,0.028-1.237,0.073L67.1,23.2c-0.3-1-1.4-1.6-2.5-1.3c-1,0.3-1.6,1.4-1.3,2.5
	l0.838,2.694c-0.332,0.162-0.657,0.34-0.974,0.534L58.9,23.6c-0.9-0.7-2.1-0.7-2.9,0.1c-0.7,0.9-0.7,2.1,0.1,2.9l3.972,3.751
	c-0.488,0.62-0.903,1.286-1.244,1.988L55.7,31.5c-1.1-0.3-2.2,0.3-2.5,1.4c-0.3,1.1,0.3,2.2,1.4,2.5l3.148,0.844
	C57.721,36.562,57.7,36.88,57.7,37.2c0,1.009,0.037,1.767,0.223,2.537c-0.14,0.054-0.285,0.109-0.423,0.163
	c-3.641,1.476-6.609,2.554-10.515,1.636C45.652,40.699,44.321,39.848,43,39c-8.1-5.1-15.7-10-22.1-10.3c-6.5-0.4-10.1,2.1-13.3,4.2
	c-0.208,0.138-0.4,0.258-0.6,0.387V31.2C7,28.3,8.5,25.6,11.1,24.2z M7,67.103c2.623-0.62,8.845-2.135,15.112-3.733
	c-3.206,2.357-6.302,4.831-8.812,6.83c-1.897,1.613-3.605,2.947-4.544,3.592C7.647,72.395,7,70.639,7,68.8V67.103z M36.776,89.885
	c0.105-0.342,0.126-0.712,0.024-1.085c-0.199-0.598-3.669-15.695,16.3-27.676c0.841,0.245,1.684,0.505,2.526,0.782
	c-4.146,3.437-12.315,13.193-7.943,33.732C47.141,95.479,46.608,95.275,46.1,95L36.776,89.885z M53.8,95
	c-0.63,0.341-1.295,0.587-1.976,0.749C46.333,71.732,59.103,64.199,59.7,63.9c0.194-0.097,0.354-0.227,0.495-0.371
	c0.771,0.292,1.538,0.59,2.303,0.893c-4.833,9.821-1.936,22.666-0.904,26.302L53.8,95z M88.8,75.8l-3.311,1.816
	c-0.702-1.23-1.757-3.269-2.415-5.399c2.407,0.612,4.7,0.983,6.826,0.983c0.594,0,1.185-0.042,1.771-0.107
	C90.977,74.201,90.014,75.146,88.8,75.8z"/>
</svg>
